<?xml version="1.0" standalone="no"?>
<!DOCTYPE svg PUBLIC "-//W3C//DTD SVG 20010904//EN"
 "http://www.w3.org/TR/2001/REC-SVG-20010904/DTD/svg10.dtd">
<svg version="1.0" xmlns="http://www.w3.org/2000/svg"
 width="4000.000000pt" height="4000.000000pt" viewBox="0 0 4000.000000 4000.000000"
 preserveAspectRatio="xMidYMid meet">

<g transform="translate(0.000000,4000.000000) scale(0.100000,-0.100000)"
fill="#000000" stroke="none">
<path d="M10275 30798 c-55 -33 -478 -289 -940 -568 -1186 -716 -1869 -1128
-3310 -1999 -693 -419 -1765 -1066 -2382 -1439 l-1122 -677 -1 -407 0 -408
755 0 755 0 0 -6635 0 -6635 160 0 160 0 0 6790 0 6790 -755 0 -755 0 0 163 0
162 1158 700 c636 384 1630 984 2207 1333 578 349 1300 786 1605 970 305 184
1008 609 1562 944 l1008 609 72 -47 c284 -184 2410 -1558 3263 -2109 2168
-1399 3681 -2379 3698 -2393 16 -14 17 -32 15 -171 l-3 -156 -912 -3 -913 -2
0 -2528 0 -2527 -93 -37 c-50 -20 -445 -181 -877 -357 l-785 -320 -3 -3980 -2
-3981 1040 0 1040 0 0 310 0 310 3300 0 3300 0 0 -304 0 -303 61 -7 c34 -3
106 -6 160 -6 l99 0 2 308 3 307 533 3 532 2 0 3668 0 3667 -498 222 c-273
122 -801 357 -1172 523 -371 166 -1230 549 -1908 851 l-1233 549 -577 -234
c-317 -129 -1031 -419 -1585 -645 -555 -226 -1011 -411 -1013 -411 -2 0 -4
1037 -4 2305 l0 2305 915 0 915 0 0 403 0 404 -1027 663 c-566 365 -1703 1100
-2528 1633 -3232 2090 -3791 2450 -3805 2453 -8 2 -60 -24 -115 -58z m9455
-9447 c562 -251 2567 -1145 3495 -1559 l360 -160 3 -3411 2 -3411 -372 2 -373
3 0 430 c0 237 2 1344 5 2460 l5 2030 -2815 -3 c-1548 -1 -3109 -5 -3468 -9
l-652 -6 2 1314 3 1313 900 367 c495 201 1204 491 1575 642 371 152 682 276
690 277 8 0 296 -126 640 -279z m-4130 -2386 l0 -1245 -430 0 -430 0 0 -2610
0 -2610 430 0 430 0 0 -155 0 -155 -720 0 -720 0 0 3718 0 3717 638 260 c350
142 671 274 712 291 41 18 78 33 83 33 4 1 7 -559 7 -1244z m6933 -3837 c-3
-1261 -6 -2299 -8 -2305 -4 -10 -673 -13 -3305 -13 l-3300 0 0 2295 c0 1262 1
2296 3 2297 1 1 1224 4 2717 8 1493 3 2981 7 3306 8 l591 2 -4 -2292z m-6933
-23 l0 -2295 -270 0 -270 0 0 2295 0 2295 270 0 270 0 0 -2295z"/>
</g>
</svg>
